<?xml version="1.0" standalone="no"?>
 <!DOCTYPE svg PUBLIC "-//W3C//DTD SVG 1.1//EN" 
 "http://www.w3.org/Graphics/SVG/1.1/DTD/svg11.dtd"> 
<svg
  xmlns:svg="http://www.w3.org/2000/svg"
  xmlns="http://www.w3.org/2000/svg"
  xmlns:xlink="http://www.w3.org/1999/xlink"
  version="1.1"
  width="120.4976mm" height="95.7834mm" viewBox="0.0000 0.0000 120.4976 95.7834">
<title>SVG Image created as prototypec_top_plate-Edge_Cuts.svg date 2023/10/31 23:39:58 </title>
  <desc>Image generated by PCBNEW </desc>
<g style="fill:#000000; fill-opacity:1.0000;stroke:#000000; stroke-opacity:1.0000;
stroke-linecap:round; stroke-linejoin:round;"
 transform="translate(0 0) scale(1 1)">
</g>
<g style="fill:#000000; fill-opacity:0.0; 
stroke:#000000; stroke-width:0.0000; stroke-opacity:1; 
stroke-linecap:round; stroke-linejoin:round;">
</g>
<g style="fill:#000000; fill-opacity:0.0; 
stroke:#000000; stroke-width:0.1000; stroke-opacity:1; 
stroke-linecap:round; stroke-linejoin:round;">
<path style="fill:#000000; fill-opacity:0.0; 
stroke:#000000; stroke-width:0.1000; stroke-opacity:1; 
stroke-linecap:round; stroke-linejoin:round;fill:none"
d="M 8.7200,10.1500
108.7200,10.1500
108.7200,87.2000
8.7200,87.2000
Z" /> 
</g>
<g style="fill:#000000; fill-opacity:0.0; 
stroke:#000000; stroke-width:0.1200; stroke-opacity:1; 
stroke-linecap:round; stroke-linejoin:round;">
<circle cx="30.1450" cy="67.7250" r="1.1500" /> 
<circle cx="87.2600" cy="29.6250" r="1.1500" /> 
<circle cx="30.1450" cy="29.6250" r="1.1500" /> 
<circle cx="87.2950" cy="67.7250" r="1.1500" /> 
<path d="M51.4200 13.1000
L66.0200 13.1000
" />
<path d="M66.0200 13.1000
L66.0200 27.1000
" />
<path d="M66.0200 27.1000
L51.4200 27.1000
" />
<path d="M51.4200 27.1000
L51.4200 13.1000
" />
<path d="M70.4700 51.2000
L85.0700 51.2000
" />
<path d="M85.0700 51.2000
L85.0700 65.2000
" />
<path d="M85.0700 65.2000
L70.4700 65.2000
" />
<path d="M70.4700 65.2000
L70.4700 51.2000
" />
<path d="M13.3200 51.2000
L27.9200 51.2000
" />
<path d="M27.9200 51.2000
L27.9200 65.2000
" />
<path d="M27.9200 65.2000
L13.3200 65.2000
" />
<path d="M13.3200 65.2000
L13.3200 51.2000
" />
<path d="M32.3700 13.1000
L46.9700 13.1000
" />
<path d="M46.9700 13.1000
L46.9700 27.1000
" />
<path d="M46.9700 27.1000
L32.3700 27.1000
" />
<path d="M32.3700 27.1000
L32.3700 13.1000
" />
<path d="M32.3700 32.1500
L46.9700 32.1500
" />
<path d="M46.9700 32.1500
L46.9700 46.1500
" />
<path d="M46.9700 46.1500
L32.3700 46.1500
" />
<path d="M32.3700 46.1500
L32.3700 32.1500
" />
<path d="M32.3700 70.2500
L46.9700 70.2500
" />
<path d="M46.9700 70.2500
L46.9700 84.2500
" />
<path d="M46.9700 84.2500
L32.3700 84.2500
" />
<path d="M32.3700 84.2500
L32.3700 70.2500
" />
<path d="M13.3200 32.1500
L27.9200 32.1500
" />
<path d="M27.9200 32.1500
L27.9200 46.1500
" />
<path d="M27.9200 46.1500
L13.3200 46.1500
" />
<path d="M13.3200 46.1500
L13.3200 32.1500
" />
<path d="M89.5200 51.2000
L104.1200 51.2000
" />
<path d="M104.1200 51.2000
L104.1200 65.2000
" />
<path d="M104.1200 65.2000
L89.5200 65.2000
" />
<path d="M89.5200 65.2000
L89.5200 51.2000
" />
<path d="M51.4200 51.2000
L66.0200 51.2000
" />
<path d="M66.0200 51.2000
L66.0200 65.2000
" />
<path d="M66.0200 65.2000
L51.4200 65.2000
" />
<path d="M51.4200 65.2000
L51.4200 51.2000
" />
<path d="M13.3200 13.1000
L27.9200 13.1000
" />
<path d="M27.9200 13.1000
L27.9200 27.1000
" />
<path d="M27.9200 27.1000
L13.3200 27.1000
" />
<path d="M13.3200 27.1000
L13.3200 13.1000
" />
<path d="M70.4700 70.2500
L85.0700 70.2500
" />
<path d="M85.0700 70.2500
L85.0700 84.2500
" />
<path d="M85.0700 84.2500
L70.4700 84.2500
" />
<path d="M70.4700 84.2500
L70.4700 70.2500
" />
<path d="M51.4200 32.1500
L66.0200 32.1500
" />
<path d="M66.0200 32.1500
L66.0200 46.1500
" />
<path d="M66.0200 46.1500
L51.4200 46.1500
" />
<path d="M51.4200 46.1500
L51.4200 32.1500
" />
<path d="M70.4700 13.1000
L85.0700 13.1000
" />
<path d="M85.0700 13.1000
L85.0700 27.1000
" />
<path d="M85.0700 27.1000
L70.4700 27.1000
" />
<path d="M70.4700 27.1000
L70.4700 13.1000
" />
<path d="M89.5200 70.2500
L104.1200 70.2500
" />
<path d="M104.1200 70.2500
L104.1200 84.2500
" />
<path d="M104.1200 84.2500
L89.5200 84.2500
" />
<path d="M89.5200 84.2500
L89.5200 70.2500
" />
<path d="M70.4700 32.1500
L85.0700 32.1500
" />
<path d="M85.0700 32.1500
L85.0700 46.1500
" />
<path d="M85.0700 46.1500
L70.4700 46.1500
" />
<path d="M70.4700 46.1500
L70.4700 32.1500
" />
<path d="M89.5200 32.1500
L104.1200 32.1500
" />
<path d="M104.1200 32.1500
L104.1200 46.1500
" />
<path d="M104.1200 46.1500
L89.5200 46.1500
" />
<path d="M89.5200 46.1500
L89.5200 32.1500
" />
<path d="M13.3200 70.2500
L27.9200 70.2500
" />
<path d="M27.9200 70.2500
L27.9200 84.2500
" />
<path d="M27.9200 84.2500
L13.3200 84.2500
" />
<path d="M13.3200 84.2500
L13.3200 70.2500
" />
<path d="M51.4200 70.2500
L66.0200 70.2500
" />
<path d="M66.0200 70.2500
L66.0200 84.2500
" />
<path d="M66.0200 84.2500
L51.4200 84.2500
" />
<path d="M51.4200 84.2500
L51.4200 70.2500
" />
<path d="M89.5200 13.1000
L104.1200 13.1000
" />
<path d="M104.1200 13.1000
L104.1200 27.1000
" />
<path d="M104.1200 27.1000
L89.5200 27.1000
" />
<path d="M89.5200 27.1000
L89.5200 13.1000
" />
<path d="M32.3700 51.2000
L46.9700 51.2000
" />
<path d="M46.9700 51.2000
L46.9700 65.2000
" />
<path d="M46.9700 65.2000
L32.3700 65.2000
" />
<path d="M32.3700 65.2000
L32.3700 51.2000
" />
<g >
</g>
<g >
</g>
<g >
</g>
<g >
</g>
<g >
</g>
<g >
</g>
<g >
</g>
<g >
</g>
<g >
</g>
<g >
</g>
<g >
</g>
<g >
</g>
<g >
</g>
<g >
</g>
<g >
</g>
<g >
</g>
<g >
</g>
<g >
</g>
<g >
</g>
<g >
</g>
<g >
</g>
<g >
</g>
<g >
</g>
<g >
</g>
<g >
</g>
<g >
</g>
<g >
</g>
</g> 
</svg>
